# Blender v2.79 (sub 0) OBJ File: 'level1.blend'
# www.blender.org
mtllib level1.mtl
o Cube
v 0.344156 -0.569586 -0.629522
v -1.871914 -1.964525 7.554449
v -3.871914 -1.964525 7.554449
v -1.655844 -0.569586 -0.629522
v 0.344156 2.377809 -0.629521
v -1.871915 0.982870 7.554450
v -4.574655 2.861899 8.409541
v -2.358584 4.256839 0.225571
v 4.965694 -2.272261 -0.629522
v 4.965694 -2.272261 1.370478
v 2.965695 -2.272261 -0.629522
v 5.010970 0.588886 -0.683700
v 2.965694 -2.272261 1.370478
v 4.965694 0.675134 1.370479
v 2.965694 0.675134 1.370478
v 2.965694 0.675134 -0.629522
v 6.363729 2.363372 -0.629522
v 6.363729 2.363372 1.370478
v 4.363729 2.363372 -0.629522
v 6.363729 5.310767 -0.629521
v 4.363729 2.363372 1.370478
v 6.363728 5.310767 1.370479
v 4.363728 5.310767 1.370478
v 4.363729 5.310767 -0.629522
v 7.650095 6.628736 -0.629522
v 7.650095 6.628736 1.370478
v 5.650095 6.628736 -0.629522
v 7.650095 9.576131 -0.629521
v 5.650095 6.628736 1.370478
v 7.650095 9.576131 1.370479
v 5.650094 9.576131 1.370478
v 5.650095 9.576131 -0.629522
v -7.014936 -1.964527 6.703376
v -4.798866 -0.569588 -1.480596
v -7.717677 2.861898 7.558468
v -5.501606 4.256837 -0.625503
v -0.156405 -0.569585 -6.166963
v -0.156405 2.377810 -6.166963
v -3.299427 -0.569586 -7.018036
v -3.299428 2.377809 -7.018036
v -7.513592 -0.569588 -2.215694
v -7.513593 2.377807 -2.215694
v -6.014154 -0.569587 -7.753135
v -6.014154 2.377808 -7.753135
v -1.655845 6.132987 -0.629522
v -4.798867 6.132985 -1.480595
v -0.156406 6.132988 -6.166963
v -3.299428 6.132987 -7.018036
v -1.871915 -1.964525 9.359931
v -3.871915 -1.964525 9.359931
v -1.871916 0.982870 9.359931
v -3.871915 0.982870 9.359931
v 3.192034 -1.964523 7.554449
v 3.192034 0.982872 7.554450
v 3.192034 -1.964523 9.359931
v 3.192033 0.982872 9.359931
v -1.871915 -0.490828 7.554450
v 3.192034 -0.490825 7.554450
v 0.660060 -1.964524 7.554449
v 0.660059 0.982871 7.554450
v 0.660060 -0.490827 7.554450
v 0.660060 -1.964523 5.420922
v 3.192034 -1.964521 5.420922
v 3.192034 -0.490824 5.420922
v 0.660060 -0.490825 5.420922
v 0.660059 2.169715 7.554451
v 3.192033 2.169716 7.554451
v 0.660059 2.169716 5.420923
v 3.192033 2.169718 5.420923
v 4.965695 -2.272260 -4.678845
v 2.965696 -2.272260 -4.678845
v 4.965696 0.675135 -4.678844
v 2.965695 0.675135 -4.678845
v 4.923910 5.140108 -0.460186
v 2.965694 5.240064 -0.629521
v 4.404542 7.065559 -4.633934
v 2.965695 5.240065 -4.678844
v 9.155619 0.675135 -4.678843
v 9.197405 0.775090 -0.798854
v 8.594465 7.065559 -4.633933
v 9.110344 5.326311 -0.575341
v 4.404542 7.065560 -7.037525
v 4.965696 0.675136 -7.082436
v 8.594465 7.065560 -7.037524
v 9.155619 0.675136 -7.082435
v -5.179991 4.596488 5.625156
v -7.738777 5.991427 -2.458195
v -8.284369 4.596487 6.607866
v -10.843161 5.991426 -1.475494
v 5.983856 0.837589 -3.244908
v 5.816680 5.347782 -2.796827
v 10.159847 1.221386 -3.465661
v 9.992670 5.731579 -3.017581
vt 0.000000 0.000000
vt 0.000000 0.000000
vt 0.000000 0.000000
vt 0.000000 0.000000
vt 0.808861 0.764137
vt 0.061796 0.582718
vt 0.000097 0.309500
vt 0.747162 0.490920
vt 0.747163 0.933471
vt 0.000097 0.752052
vt 0.058832 0.581665
vt 0.000000 0.000000
vt 0.000000 0.000000
vt 0.000000 0.000000
vt 0.000000 0.000000
vt 0.000000 0.000000
vt 0.000000 0.000000
vt 0.000000 0.000000
vt 0.000000 0.000000
vt 0.000000 0.000000
vt 0.000000 0.000000
vt 0.000000 0.000000
vt 0.000000 0.000000
vt 0.000000 0.000000
vt 0.000000 0.000000
vt 0.000000 0.000000
vt 0.000000 0.000000
vt 0.000000 0.000000
vt 0.000000 0.000000
vt 0.000000 0.000000
vt 0.000000 0.000000
vt 0.000000 0.000000
vt 0.000000 0.000000
vt 0.000000 0.000000
vt 0.000000 0.000000
vt 0.000000 0.000000
vt 0.000000 0.000000
vt 0.000000 0.000000
vt 0.000000 0.000000
vt 0.000000 0.000000
vt 0.000000 0.000000
vt 0.000000 0.000000
vt 0.000000 0.000000
vt 0.000000 0.000000
vt 0.000000 0.000000
vt 0.000000 0.000000
vt 0.000000 0.000000
vt 0.265359 0.226944
vt 0.999904 0.000097
vt 0.000000 0.000000
vt 0.000000 0.000000
vt 0.000000 0.000000
vt 0.000000 0.000000
vt 0.000000 0.000000
vt 0.000000 0.000000
vt 0.000000 0.000000
vt 0.000000 0.000000
vt 0.000000 0.000000
vt 0.000000 0.000000
vt 0.000000 0.000000
vt 0.000000 0.000000
vt 0.000000 0.000000
vt 0.000000 0.000000
vt 0.000000 0.000000
vt 0.000000 0.000000
vt 0.000000 0.000000
vt 0.000000 0.000000
vt 0.000000 0.000000
vt 0.000000 0.000000
vt 0.000000 0.000000
vt 0.000000 0.000000
vt 0.000000 0.000000
vt 0.000000 0.000000
vt 0.000000 0.000000
vt 0.000000 0.000000
vt 0.000000 0.000000
vt 0.000000 0.000000
vt 0.000000 0.000000
vt 0.000000 0.000000
vt 0.000000 0.000000
vt 0.000000 0.000000
vt 0.000000 0.000000
vt 0.000000 0.000000
vt 0.000000 0.000000
vt 0.000000 0.000000
vt 0.000000 0.000000
vt 0.000000 0.000000
vt 0.000000 0.000000
vt 0.000000 0.000000
vt 0.000000 0.000000
vt 0.000000 0.000000
vt 0.000000 0.000000
vt 0.000000 0.000000
vt 0.000000 0.000000
vt 0.000000 0.000000
vt 0.000000 0.000000
vt 0.000000 0.000000
vt 0.000000 0.000000
vt 0.000000 0.000000
vt 0.000000 0.000000
vt 0.000000 0.000000
vt 0.000097 0.000097
vt 0.887208 0.020023
vt 0.934572 0.726695
vt 0.000097 0.999903
vt 0.478011 0.074490
vt 0.805858 0.008679
vt 0.822776 0.315679
vt 0.519375 0.390090
vt 0.005687 0.000074
vt 0.999926 0.000074
vt 0.994313 0.546559
vt 0.000074 0.546559
vt 0.999924 0.573649
vt 0.000076 0.573649
vt 0.000076 0.000076
vt 0.999924 0.000076
vt 0.000080 0.614588
vt 0.008260 0.381846
vt 0.323075 0.392910
vt 0.314895 0.625653
vt 0.029020 0.999904
vt 0.000096 0.000096
vt 0.920787 0.000096
vt 0.872203 0.999141
vn 0.0000 0.9858 0.1680
vn -0.6065 -0.7402 -0.2904
vn -0.9652 0.0000 -0.2614
vn 0.0000 1.0000 0.0000
vn -0.9561 -0.0547 -0.2880
vn 0.1410 -0.0956 0.9854
vn -0.0210 -0.9996 0.0210
vn -0.9999 0.0077 -0.0113
vn 0.0000 0.0000 -1.0000
vn 1.0000 0.0000 0.0000
vn 0.0000 -1.0000 -0.0000
vn -1.0000 -0.0000 -0.0000
vn -0.0000 -0.0000 1.0000
vn 0.9573 0.0907 0.2747
vn -0.3916 -0.9082 -0.1475
vn -0.0424 0.9867 0.1567
vn 0.2558 0.2046 -0.9448
vn -0.2614 -0.0000 0.9652
vn 0.2302 -0.4737 -0.8501
vn 0.9652 0.0000 0.2614
vn 0.2605 -0.9380 0.2286
vn 0.3934 0.1356 -0.9093
vn -0.9493 0.0720 -0.3059
vn 0.9493 -0.0720 0.3059
vn -0.4009 -0.8013 -0.4441
vn 0.9785 0.1078 -0.1760
vn -0.0222 0.9998 -0.0015
vn -1.0000 0.0078 0.0057
vn 0.4522 -0.8617 -0.2303
vn -0.0106 -0.0046 0.9999
vn 0.0299 0.0248 -0.9992
vn -0.0635 0.9926 0.1037
vn -0.0000 -0.0070 1.0000
vn 0.9962 0.0875 0.0000
vn -0.0490 -0.9867 -0.1548
vn 0.4694 0.8719 0.1396
vn 0.0143 0.7349 0.6781
vn -0.0143 -0.7349 -0.6781
vn 0.0633 -0.9921 -0.1085
vn -0.9345 0.0002 -0.3560
vn -0.9965 -0.0604 0.0575
vn 0.0147 -0.9128 -0.4082
vn -0.9962 -0.0875 -0.0000
vn -0.0614 0.0964 -0.9934
vn 0.9405 0.0012 0.3398
usemtl Material
s off
f 1/1/1 4/2/1 3/3/1 2/4/1
f 5/5/2 6/6/2 7/7/2 8/8/2
f 1/9/3 2/10/3 57/11/3 6/6/3 5/5/3
f 2/4/4 3/3/4 50/12/4 49/13/4
f 4/2/5 8/14/5 38/15/5 37/16/5
f 5/17/6 8/14/6 4/2/6 1/1/6
f 9/18/4 11/19/4 13/20/4 10/21/4
f 12/22/7 14/23/7 15/24/7 16/25/7
f 9/18/8 10/21/8 14/23/8 12/22/8
f 10/21/9 13/20/9 15/24/9 14/23/9
f 13/20/10 11/19/10 16/25/10 15/24/10
f 16/25/10 11/19/10 71/26/10 73/27/10
f 17/28/4 19/29/4 21/30/4 18/31/4
f 20/32/11 22/33/11 23/34/11 24/35/11
f 17/28/12 18/31/12 22/33/12 20/32/12
f 18/31/9 21/30/9 23/34/9 22/33/9
f 21/30/10 19/29/10 24/35/10 23/34/10
f 20/32/13 24/35/13 19/29/13 17/28/13
f 25/36/11 26/37/11 29/38/11 27/39/11
f 28/40/4 32/41/4 31/42/4 30/43/4
f 25/36/10 28/40/10 30/43/10 26/37/10
f 26/37/13 30/43/13 31/42/13 29/38/13
f 29/38/12 31/42/12 32/41/12 27/39/12
f 28/40/9 25/36/9 27/39/9 32/41/9
f 33/44/14 34/45/14 36/46/14 35/47/14
f 8/8/15 7/7/15 86/48/15 87/49/15
f 3/3/16 4/2/16 34/45/16 33/44/16
f 7/50/17 3/3/17 33/44/17 35/47/17
f 37/16/18 38/15/18 40/51/18 39/52/18
f 8/14/19 36/46/19 46/53/19 45/54/19
f 34/45/4 4/2/4 37/16/4 39/52/4
f 34/45/4 39/52/4 43/55/4 41/56/4
f 42/57/20 41/56/20 43/55/20 44/58/20
f 39/52/18 40/51/18 44/58/18 43/55/18
f 40/51/21 36/46/21 42/57/21 44/58/21
f 36/46/22 34/45/22 41/56/22 42/57/22
f 45/54/11 46/53/11 48/59/11 47/60/11
f 38/15/23 8/14/23 45/54/23 47/60/23
f 36/46/24 40/51/24 48/59/24 46/53/24
f 40/51/18 38/15/18 47/60/18 48/59/18
f 49/13/9 50/12/9 52/61/9 51/62/9
f 61/63/10 59/64/10 62/65/10 65/66/10
f 7/50/25 6/67/25 51/62/25 52/61/25
f 3/3/26 7/50/26 52/61/26 50/12/26
f 54/68/12 58/69/12 53/70/12 55/71/12 56/72/12
f 2/4/4 49/13/4 55/71/4 53/70/4 59/64/4
f 49/13/9 51/62/9 56/72/9 55/71/9
f 51/62/11 6/67/11 60/73/11 54/68/11 56/72/11
f 60/73/13 61/63/13 58/69/13 54/68/13
f 6/67/13 57/74/13 61/63/13 60/73/13
f 57/74/13 2/4/13 59/64/13 61/63/13
f 65/66/13 62/65/13 63/75/13 64/76/13
f 59/64/4 53/70/4 63/75/4 62/65/4
f 64/76/12 58/69/12 67/77/12 69/78/12
f 53/70/12 58/69/12 64/76/12 63/75/12
f 67/77/11 66/79/11 68/80/11 69/78/11
f 58/69/9 61/63/9 66/79/9 67/77/9
f 61/63/10 65/66/10 68/80/10 66/79/10
f 65/66/13 64/76/13 69/78/13 68/80/13
f 72/81/13 73/27/13 71/26/13 70/82/13
f 11/19/4 9/18/4 70/82/4 71/26/4
f 72/81/27 12/22/27 79/83/27 78/84/27
f 9/18/28 12/22/28 72/81/28 70/82/28
f 74/85/29 75/86/29 77/87/29 76/88/29
f 73/27/30 72/81/30 76/88/30 77/87/30
f 16/25/10 73/27/10 77/87/10 75/86/10
f 12/22/31 16/25/31 75/86/31 74/85/31
f 74/85/32 81/89/32 93/90/32 91/91/32
f 82/92/33 83/93/33 85/94/33 84/95/33
f 76/88/34 72/81/34 83/93/34 82/92/34
f 72/81/4 78/84/4 85/94/4 83/93/4
f 87/96/35 86/97/35 88/98/35 89/99/35
f 35/47/36 36/46/36 89/99/36 88/98/36
f 36/46/37 8/14/37 87/96/37 89/99/37
f 7/50/38 35/47/38 88/98/38 86/97/38
f 79/83/39 12/22/39 90/100/39 92/101/39
f 12/22/40 74/85/40 91/91/40 90/100/40
usemtl Material.001
f 78/102/41 79/103/41 81/104/41 80/105/41
f 74/106/42 76/107/42 80/108/42 81/109/42
f 78/110/43 80/111/43 84/112/43 85/113/43
f 80/114/11 76/115/11 82/116/11 84/117/11
f 90/118/44 91/119/44 93/120/44 92/121/44
f 81/122/45 79/123/45 92/124/45 93/125/45
